<svg xmlns="http://www.w3.org/2000/svg" width="384px" height="576px" viewBox="0 0 300 450">

<!-- nanosvg doesn't support use, so just cut and paste for now -->
<defs>
  <circle id="poi-bg" r="23"/>
</defs>

<!-- Restaurant: https://github.com/scottdejonge/map-icons/blob/master/src/icons/restaurant.svg -->
<!-- other color options: #F87C4C, #F29900 -->
<svg x="0" y="0" width="50" height="50" viewBox="-25 -25 50 50">
  <rect id="restaurant" x="-25" y="-25" width="50" height="50" display="none"/>
  <circle cx="0" cy="0" r="23" fill="#F68C30"/>
  <path fill="#FFFFFF" transform="scale(0.65) translate(-25, -25)" d="M22 1.932v11.068h-2v-11c0-.552-.448-1-1-1s-1 .448-1 1v11h-2v-11.036c0-1.287-2-1.243-2-.033v11.069h-2v-10.99c0-1.363-2-1.313-2-.054v14.472c0 2.087 2 3.463 4 3.463v26.109c0 4 6 4 6 0v-26.108c2 0 4-1.662 4-3.227v-14.701c0-1.275-2-1.226-2-.032zm9 3.068v25h2v16c0 4 7 4 7 0v-41c0-5-9-5-9 0z"/>
</svg>

<!-- Cafe: https://github.com/scottdejonge/map-icons/blob/master/src/icons/cafe.svg -->
<svg x="50" y="0" width="50" height="50" viewBox="-25 -25 50 50">
  <rect id="cafe" x="-25" y="-25" width="50" height="50" display="none"/>
  <circle cx="0" cy="0" r="23" fill="#F68C30"/>
  <path fill="#FFFFFF" transform="scale(0.65) translate(-25, -25)" d="M37 7h-28v27c0 2.2 1.8 4 4 4h20c2.2 0 4-1.8 4-4v-5c6.076 0 11-4.925 11-11s-4.924-11-11-11zm0 17v-12c3.314 0 6 2.686 6 6 0 3.313-2.686 6-6 6zm-35 16v2.301c0 1.896 2.069 2.699 4.6 2.699h36.8c2.53 0 4.6-.803 4.6-2.699v-2.301h-46z"/>
</svg>

<!-- Bar: https://github.com/mapbox/maki/blame/main/icons/bar.svg -->
<svg x="100" y="0" width="50" height="50" viewBox="-25 -25 50 50">
  <rect id="bar" x="-25" y="-25" width="50" height="50" display="none"/>
  <circle cx="0" cy="0" r="23" fill="#F68C30"/>
  <path fill="#FFFFFF" transform="scale(2.0) translate(-7.5, -7.5)" d="M7.5,1c-2,0-7,0.25-6.5,0.75L7,8v4 c0,1-3,0.5-3,2h7c0-1.5-3-1-3-2V8l6-6.25C14.5,1.25,9.5,1,7.5,1z M7.5,2c2.5,0,4.75,0.25,4.75,0.25L11.5,3h-8L2.75,2.25 C2.75,2.25,5,2,7.5,2z"/>
</svg>

<!-- Bakery: https://github.com/mapbox/maki/blame/main/icons/bakery.svg -->
<svg x="150" y="0" width="50" height="50" viewBox="-25 -25 50 50">
  <rect id="bakery" x="-25" y="-25" width="50" height="50" display="none"/>
  <circle cx="0" cy="0" r="23" fill="#F68C30"/>
  <path fill="#FFFFFF" transform="scale(0.65) translate(-25, -25)" d="M37.833 14.812c.333 5.205-2.192 8.854-2.192 8.854.328-4.009-1.297-9.55-1.297-9.55-1.388-.272-3.606.02-3.606.02.32 4.324-1.879 8.1-3.503 9.49.803-4.795-.475-8.423-.475-8.423-2.197-.554-5.346-.215-5.346-.215.684 5.101-2.13 8.854-2.13 8.854.466-3.556-1.434-8.117-1.434-8.117-1.613-.105-4.183.42-4.183.42 1.355 2.421.273 7.742.273 7.742-.739-4.351-3.223-6.917-3.223-6.917-14.244 6.066-10.492 14.423-3.527 16.912 6.571 2.344 27.744 3.499 37.217-.611 9.474-4.112 2.803-15.667-6.574-18.459z"/>
</svg>

<!-- Grocery: https://github.com/scottdejonge/map-icons/blob/master/src/icons/grocery-or-supermarket.svg -->
<svg x="0" y="50" width="50" height="50" viewBox="-25 -25 50 50">
  <rect id="grocery" x="-25" y="-25" width="50" height="50" display="none"/>
  <circle cx="0" cy="0" r="23" fill="#5491F5"/>
  <g fill="#FFFFFF" transform="scale(0.625) translate(-25, -25)">
    <circle cx="44" cy="42" r="4"/>
    <circle cx="15" cy="42" r="4"/>
    <path d="M47 33h-31.229l.667-1.082c.286-.464.37-1.025.233-1.553l-.651-2.506 28.983-1.506c1.099-.056 1.997-1.003 1.997-2.103v-13.25c0-1.1-.9-2-2-2h-33.881l-.391-1.503c-.229-.882-1.025-1.497-1.936-1.497h-6.792c-1.104 0-2 .896-2 2s.896 2 2 2h5.246l5.34 20.545-2.1 3.405c-.38.617-.397 1.392-.043 2.024.352.633 1.02 1.026 1.745 1.026h34.812c1.104 0 2-.896 2-2s-.896-2-2-2z"/>
  </g>
</svg>

<!-- Convenience Store: https://github.com/scottdejonge/map-icons/blob/master/src/icons/convenience-store.svg -->
<svg x="50" y="50" width="50" height="50" viewBox="-25 -25 50 50">
  <rect id="convenience" x="-25" y="-25" width="50" height="50" display="none"/>
  <circle cx="0" cy="0" r="23" fill="#5491F5"/>
  <path fill="#FFFFFF" transform="scale(0.65) translate(-25, -25)" d="M41 19h-.272c-.074-.128-.16-.252-.266-.365l-11.544-12.368c.051-.247.082-.503.082-.767 0-1.933-1.424-3.5-3.182-3.5h-3.637c-1.757 0-3.181 1.567-3.181 3.5 0 .264.032.52.082.767l-11.544 12.368c-.105.113-.191.237-.266.365h-5.272v7h2v15c0 2.762 2.239 5 5 5h32c2.762 0 5-2.238 5-5v-15h2v-7h-7zm-18.818-10h3.637l.163-.018 9.349 10.018h-22.662l9.35-10.018.163.018zm-9.182 31c0 1.1-.9 2-2 2s-2-.9-2-2v-12c0-1.1.9-2 2-2s2 .9 2 2v12zm9 0c0 1.1-.9 2-2 2s-2-.9-2-2v-12c0-1.1.9-2 2-2s2 .9 2 2v12zm10 0c0 1.1-.9 2-2 2s-2-.9-2-2v-12c0-1.1.9-2 2-2s2 .9 2 2v12zm9 0c0 1.1-.9 2-2 2s-2-.9-2-2v-12c0-1.1.9-2 2-2s2 .9 2 2v12z"/>
</svg>

<!-- Shopping: https://github.com/scottdejonge/map-icons/blob/master/src/icons/department-store.svg -->
<svg x="100" y="50" width="50" height="50" viewBox="-25 -25 50 50">
  <rect id="shop" x="-25" y="-25" width="50" height="50" display="none"/>
  <circle cx="0" cy="0" r="23" fill="#5491F5"/>
  <path fill="#FFFFFF" transform="scale(0.65) translate(-25, -26)" d="M34 11v-3.036c0-2.481-2.109-4.964-4.589-4.964h-8.343c-2.479 0-5.068 2.483-5.068 4.964v3.036h-5.312l-5.688 35h40.187l-5.778-35h-5.409zm-15-3.036c0-.929 1.14-1.964 2.068-1.964h8.343c.927 0 1.589 1.035 1.589 1.964v3.036h-12v-3.036z"/>
</svg>

<!-- Clothes: https://github.com/scottdejonge/map-icons/blob/master/src/icons/clothing-store.svg -->
<svg x="150" y="50" width="50" height="50" viewBox="-25 -25 50 50">
  <rect id="clothes" x="-25" y="-25" width="50" height="50" display="none"/>
  <circle cx="0" cy="0" r="23" fill="#5491F5"/>
  <path fill="#FFFFFF" transform="scale(0.7) translate(-25, -26)" d="M47.36 14.75c.08.29-.021.61-.19.86l-5.39 8.02c-.2.31-.62.48-.971.48-.1 0-.38-.02-.489-.05l-4.32-1.06v19c0 .58-.41 1-1 1h-21c-.59 0-1-.42-1-1v-19l-3.88 1.07c-.45.14-.84-.04-1.09-.43l-5.35-8c-.17-.26-.22-.55-.14-.84.07-.3.28-.5.55-.64l10.91-5.16h5c.59 0 1 .41 1 1 0 2.06 2.89 3.52 4.95 3.52s5.05-1.45 5.05-3.52c0-.58.41-1 1-1h5l10.8 5.06c.28.14.48.39.56.69z"/>
</svg>

<!-- Hardware: https://github.com/scottdejonge/map-icons/blob/master/src/icons/hardware-store.svg -->
<svg x="200" y="50" width="50" height="50" viewBox="-25 -25 50 50">
  <rect id="hardware" x="-25" y="-25" width="50" height="50" display="none"/>
  <circle cx="0" cy="0" r="23" fill="#5491F5"/>
  <path fill="#FFFFFF" transform="scale(0.6) translate(-24, -26)" d="M12.551 49.485c-.34.596-1.308.69-2.162.2l-5.346-3.043c-.85-.485-1.265-1.362-.924-1.957l22.737-36.043c3.27-5.286-8.16-4.82-10.966-3.264 2.122-3.805 8.885-5.061 13.271-5.378l1.276.083c2.479 1.235 6.034 3.088 8.377 4.642 1.721 2.703 3.536 4.126 6.106 4.119 3.354 2.57-1.885 9.581-5.181 6.334.018-1.604-4.636-5.754-7.896-2.335l-19.292 36.642z"/>
</svg>

<!-- Pharmacy: https://www.svgrepo.com/svg/119406/pharmacy-tool-plus-sign-in-square -->
<svg x="250" y="50" width="50" height="50" viewBox="-25 -25 50 50">
  <rect id="pharmacy" x="-25" y="-25" width="50" height="50" display="none"/>
  <circle cx="0" cy="0" r="23" fill="#5491F5"/>
  <path fill="#FFFFFF" transform="scale(0.09) translate(-260, -265)" d="M315.562,449.438h-114.75    c-5.279,0-9.562-4.285-9.562-9.562s4.284-9.562,9.562-9.562h114.75c5.278,0,9.562,4.285,9.562,9.562    S320.841,449.438,315.562,449.438z M340.157,411.188h-5.47h-153h-3.31c-55.615-57.375-56.83-133.875-52.718-181.688h264.766    C392.885,267.75,392.933,363.375,340.157,411.188z M397.092,166.416c-4.915,9.505-13.034,14.717-22.367,18.188l-9.964,16.208    h-69.137l24.557-44.418c-2.562-9.62-1.702-19.383,3.213-28.888c10.51-20.292,35.62-27.884,55.923-17.394    C399.598,120.611,407.592,146.124,397.092,166.416z M277.312,258.187L239.062,258.187 239.062,296.438 200.5,296.438 200.5,334.688 239.062,334.688 239.062,373.062 277.312,373.062 277.312,334.688 315.5,334.688 315.5,296.438 277.312,296.438"/>
</svg>

<!-- Liquor store: https://github.com/scottdejonge/map-icons/blame/master/src/icons/liquor-store.svg -->
<svg x="0" y="100" width="50" height="50" viewBox="-25 -25 50 50">
  <rect id="liquor" x="-25" y="-25" width="50" height="50" display="none"/>
  <circle cx="0" cy="0" r="23" fill="#5491F5"/>
  <path fill="#FFFFFF" transform="scale(0.57) translate(-25, -25)" d="M14 16c3 1 5 3.548 5 6.908v25.817c0 .794.803 1.275-.017 1.275h-14.801c-.818 0-1.182-.481-1.182-1.274v-25.818c0-3.368 2-6.154 5-6.908v-12h6v12zm-6-16h6v2h-6zm27.255 4.785c-.457-.065-.808-.436-.808-.883 0-.327.196-.612.481-.774-.285-.15-.481-.678-.481-1.008 0-.496.418-1.12.936-1.12h4.684c.521 0 .936.624.936 1.119 0 .345-.195.747-.492.892.285.155.492.494.492.833 0 .448-.338.847-.793.907l5.965 14.6c.35.949.825 2.016.825 3.064v25.585c0 .976.026 2-1 2h-15.089c-1.042 0-.911-1.024-.911-2v-26c0-1.047.195-1.686.547-2.636l4.708-14.579z"/>
</svg>

<!-- Bicycle store: https://github.com/scottdejonge/map-icons/blob/master/src/icons/bicycle-store.svg -->
<svg x="50" y="100" width="50" height="50" viewBox="-25 -25 50 50">
  <rect id="bike_shop" x="-25" y="-25" width="50" height="50" display="none"/>
  <circle cx="0" cy="0" r="23" fill="#5491F5"/>
  <path fill="#FFFFFF" transform="scale(0.7) translate(-25, -27)" d="M40.909 22.651c-1.266 0-2.469.26-3.562.727l-3.076-5.271 2.318-3.973c.315-.542.132-1.238-.409-1.555-.238-.138-.503-.388-.754-.347l-.197-.232h-4.547c-.627 0-1.136.873-1.136 1.5 0 .628.509 1.5 1.136 1.5h2.947l-1.327 2h-13.278l2.652-5h1.051c.627 0 1.136-.372 1.136-1s-.509-1-1.136-1h-5.683c-.626 0-1.136.372-1.136 1s.509 1 1.136 1h1.999l-6.389 11.165c-1.094-.467-2.299-.62-3.564-.62-5.02 0-9.09 4.124-9.09 9.144 0 5.021 4.07 9.117 9.091 9.117s9.091-4.057 9.091-9.078c0-2.94-1.402-5.541-3.57-7.204l2.433-4.166 6.974 11.956.027.038.03.045.023.034.09.104.011.013.031.028.032.026.088.07.037.024.029.019.012.007.004.004.096.047.011.005.023.012.008.002.073.026.068.022.014.004.025.004.044.009.204.021.001.062.004.059h6.891c.562 4 4.378 7.895 9.013 7.895 5.021 0 9.091-4.101 9.091-9.122.001-5.02-4.069-9.121-9.09-9.121zm-25 9.091c0 3.767-3.052 6.819-6.818 6.819-3.766 0-6.818-3.053-6.818-6.819 0-3.765 3.052-6.817 6.818-6.817.847 0 1.655.161 2.403.444l-3.385 5.802c-.316.541-.132 1.237.41 1.555.18.104.377.154.571.154.391 0 .771-.202.983-.563l3.386-5.806c1.496 1.251 2.45 3.13 2.45 5.231zm9.091-2.498l-5.976-10.244h11.953l-5.977 10.244zm7.954-8.685l2.434 4.268c-1.882 1.444-3.182 3.173-3.492 6.173h-4.918l5.976-10.441zm3.587 6.345l2.391 4.096h-4.738c.274-2 1.126-3.075 2.347-4.096zm4.368 11.719c-3.377 0-6.175-2.623-6.716-5.623h6.713l.005-.059.203-.053.046-.023.189-.066.021-.016.113-.058.027-.021.101-.073.078-.066.076-.083.068-.085.057-.092.052-.095.039-.104.031-.104.017-.104.013-.123.003-.035-.005-.064-.014-.124-.023-.106-.033-.104-.052-.113-.027-.059-3.385-5.802c.75-.283 1.557-.444 2.403-.444 3.767 0 6.819 3.083 6.819 6.848.001 3.767-3.052 6.851-6.819 6.851z"/>
</svg>

<!-- Fuel: https://www.sjjb.co.uk/mapicons/svg/transport/fuel.svg -->
<svg x="100" y="100" width="50" height="50" viewBox="-25 -25 50 50">
  <rect id="fuel" x="-25" y="-25" width="50" height="50" display="none"/>
  <circle cx="0" cy="0" r="23" fill="#5491F5"/>
  <g fill="#FFFFFF" transform="scale(0.08) translate(-295, -280)">
    <path d="M 249,111.75 C 240.51758,111.75 232.0625,117.88064 232.0625,127.6875 L 231.875,442.9375 L 249.3125,442.9375 L 249.46875,467.875 L 409.5625,467.78125 L 409.6875,442.9375 L 424.6875,443.0625 L 424.6875,124.4375 C 424.68751,117.64142 420.75087,111.75 413.34375,111.75 L 249,111.75 z M 275.78125,146.59375 L 380.6875,146.59375 C 386.49577,146.59375 391.06251,148.95926 391.0625,156.96875 L 391.0625,239.84375 C 391.0625,245.45746 388.06163,249.53125 381.65625,249.53125 L 276.0625,249.25 C 269.96423,249.25 264.71875,244.74463 264.71875,238.1875 L 265.25,156.6875 C 265.25,150.1638 269.76979,146.59375 275.78125,146.59375 z" id="path1897"/>
    <path d="M 232.83211,220.10791 L 216.8105,220.01303 C 216.70662,285.20608 217.18175,413.86794 217.45327,416.06937 C 218.03287,420.76868 217.68239,425.63716 216.47581,430.07245 C 191.35934,493.34558 110.08776,464.28417 121.62727,402.71575 C 146.97207,341.64522 182.51061,300.32073 200.19813,228.29037 L 201.77268,281.83519 C 185.8545,312.81087 157.77166,367.21167 135.99276,412.68501 C 134.15788,454.66887 184.10162,468.50125 199.74349,423.43723 C 206.71402,344.55555 199.48141,258.5723 199.35038,176.13983 C 209.5149,145.92256 220.73039,143.03014 232.11247,144.46938"/>
  </g>
</svg>

<!-- Dentist: https://github.com/scottdejonge/map-icons/blob/master/src/icons/dentist.svg -->
<svg x="0" y="150" width="50" height="50" viewBox="-25 -25 50 50">
  <rect id="dentist" x="-25" y="-25" width="50" height="50" display="none"/>
  <circle cx="0" cy="0" r="23" fill="#9398DD"/>
  <path fill="#FFFFFF" transform="scale(0.65) translate(-25, -25)" d="M24.847 27.268c3.547 0 5.191 2.69 5.536 6.512.081.914-.001 2.247-.12 3.791-.398 5.128-.856 11.429 2.557 11.429 2.89 0 4.371-5.54 5.229-11.856.826-6.252-.051-9.363.382-12.14.821-5.26 5.412-9.976 3.994-16.683-.786-3.721-2.836-5.47-4.864-6.207-4.674-1.701-7.694 1.577-12.714 1.577-5.019 0-8.037-3.278-12.713-1.577-2.027.736-4.078 2.486-4.866 6.207-1.415 6.707 3.175 11.422 3.999 16.683.429 2.776-.443 5.888.382 12.14.856 6.316 2.34 11.856 5.227 11.856 3.411 0 2.956-6.301 2.558-11.429-.116-1.545-.204-2.878-.121-3.792.344-3.821 2.012-6.511 5.534-6.511z"/>
</svg>

<!-- Hairdresser: https://github.com/mapbox/maki/blob/main/icons/hairdresser.svg -->
<svg x="50" y="150" width="50" height="50" viewBox="-25 -25 50 50">
  <rect id="scissor" x="-25" y="-25" width="50" height="50" display="none"/>
  <circle cx="0" cy="0" r="23" fill="#9398DD"/>
  <path fill="#FFFFFF" transform="scale(2.0) translate(-7.5, -7.5)" d="M15,3c0,0-2-0.6-3.5,0.5l-4.3,3C6.4,5.9,5.2,5.2,4,4.8V4c0-1.1-0.9-2-2-2C0.9,2,0,2.9,0,4v1.5 C0,6,0.5,6,0.5,6H2h0.5C4.5,6,6,7.5,6,7.5S4.5,9,2.5,9H2H0.5C0.5,9,0,9,0,9.5V11c0,1.1,0.9,2,2,2c1.1,0,2-0.9,2-2v-0.8 c1.2-0.4,2.4-1.1,3.2-1.7l4.3,3C13,12.6,15,12,15,12L8.5,7.5L15,3z M3,5H2H1V4c0-0.6,0.4-1,1-1c0.6,0,1,0.4,1,1V5z M3,11 c0,0.6-0.4,1-1,1c-0.6,0-1-0.4-1-1v-1h1h1V11z M7.25,8c-0.2761,0-0.5-0.2239-0.5-0.5S6.9739,7,7.25,7s0.5,0.2239,0.5,0.5 S7.5261,8,7.25,8z"/>
</svg>

<!-- Bank: https://github.com/scottdejonge/map-icons/blame/master/src/icons/bank.svg -->
<svg x="100" y="150" width="50" height="50" viewBox="-25 -25 50 50">
  <rect id="bank" x="-25" y="-25" width="50" height="50" display="none"/>
  <circle cx="0" cy="0" r="23" fill="#9398DD"/>
  <path fill="#FFFFFF" transform="scale(0.725) translate(-22, -25)" d="M34.682 25.801c-1.438-1.134-3.596-2.04-6.474-2.717l-2.208-.521v-9.43l.299.122c1.874.949 2.881 2.745 3.019 4.745h7.516c-.137-4-1.615-6.958-4.434-9.048-1.873-1.389-4.009-2.282-6.4-2.732v-5.22h-7v5.06c-3.237.4-5.804 1.442-7.689 3.136-2.468 2.218-3.701 5.002-3.701 8.354 0 3.673 1.261 6.373 3.783 8.1 1.412.979 3.957 1.888 7.607 2.73v10.216c-1.331-.367-2.374-.971-3.109-1.844-.709-.848-1.184-1.752-1.426-3.752h-7.465c0 4 1.411 6.87 4.234 9.096 2.038 1.606 4.632 2.582 7.766 3.005v3.899h7v-3.833c3.333-.399 6.024-1.463 8.062-3.204 2.643-2.26 3.965-5.1 3.965-8.519 0-3.335-1.115-5.882-3.345-7.643zm-18.014-5.817c-1.215-.66-1.822-1.662-1.822-3 0-1.456.616-2.597 1.848-3.409.65-.429 1.424-.741 2.306-.947v8.224c-1.085-.316-1.868-.606-2.332-.868zm10.475 18.407c-.347.12-.734.219-1.143.306v-8.697c1.205.357 2.156.746 2.848 1.164 1.092.677 1.639 1.64 1.639 2.875-.001 2.116-1.116 3.573-3.344 4.352z"/>
</svg>

<!-- Gym: https://www.svgrepo.com/svg/263770/dumbbell-weight -->
<svg x="150" y="150" width="50" height="50" viewBox="-25 -25 50 50">
  <rect id="gym" x="-25" y="-25" width="50" height="50" display="none"/>
  <circle cx="0" cy="0" r="23" fill="#9398DD"/>
  <path fill="#FFFFFF" transform="scale(0.065) translate(-240, -240)" d="M472.615,141.585l-46.743-46.743l8.914-8.914c13.272-13.272,13.272-34.788,0-48.06c-13.272-13.272-34.789-13.272-48.06,0 			l-8.914,8.914L331.071,0.038l-48.138,48.14L240.764,6.007l-48.137,48.138l88.911,88.913l-138.523,138.52l-88.911-88.909 			L5.968,240.805l42.169,42.168L0,331.11l46.741,46.741l-8.914,8.916c-13.272,13.272-13.272,34.789,0,48.06s34.789,13.272,48.061,0 			l8.914-8.913l46.665,46.663l48.193-48.082l42.191,42.193l48.062-48.06l-88.912-88.914l138.597-138.598l88.912,88.914 			l48.137-48.138l-42.169-42.17L472.615,141.585z"/>
</svg>

<!-- auto repair (top 5 shop tag value): https://github.com/scottdejonge/map-icons/blame/master/src/icons/car-repair.svg -->
<svg x="200" y="150" width="50" height="50" viewBox="-25 -25 50 50">
  <rect id="auto_repair" x="-25" y="-25" width="50" height="50" display="none"/>
  <circle cx="0" cy="0" r="23" fill="#9398DD"/>
  <path fill="#FFFFFF" transform="scale(0.65) translate(-22, -26)" d="M21.434 7.689l-2.434 3.311h-5.684c.701 2 2.996 3.886 6.201 3.26.95-.064 4.155-.573 5.483-.26 1.768.424 1.031.426 4.201 2.97l15.799 13.03c.968.855 2.206.505 3.063-.461.857-.968.905-2.684-.063-3.539l-20-16c-1.252-1.005-1.568-2.397-2-4-.84-2.755-3.929-4.965-6.961-4.965-2.443 0-5.072 2.113-6.039 3.965h6l2.434 2.689zm13.72 24.311l-6.182-10.73c-.244-.445-.861-1.27-1.368-1.27h-17.208c-.507 0-1.124.825-1.369 1.27l-6.027 10.73h-.154c-1.015 0-1.846.369-1.846 1.385v9.23c0 1.016.831 1.385 1.846 1.385h2.154v3.23c0 1.524.938 2.77 2.461 2.77h.923c1.524 0 2.616-1.246 2.616-2.77v-3.23h16v3.23c0 1.523 1.092 2.77 2.615 2.77h.923c1.524 0 2.462-1.246 2.462-2.77v-3.23h2.154c1.015 0 1.846-.369 1.846-1.385v-9.23c0-1.016-.831-1.385-1.846-1.385zm-29.077 6.923c-1.275 0-2.308-1.033-2.308-2.308s1.033-2.308 2.308-2.308c1.274 0 2.308 1.033 2.308 2.308s-1.033 2.308-2.308 2.308zm1.846-6.923l3.741-7.828c.227-.454.829-1.172 1.336-1.172h12c.507 0 1.108.718 1.336 1.172l3.741 7.828h-22.154zm24 6.923c-1.274 0-2.308-1.033-2.308-2.308s1.033-2.308 2.308-2.308 2.308 1.033 2.308 2.308-1.034 2.308-2.308 2.308z"/>
</svg>

<!-- Laundry: https://github.com/scottdejonge/map-icons/blame/master/src/icons/laundry.svg -->
<svg x="250" y="150" width="50" height="50" viewBox="-25 -25 50 50">
  <rect id="laundry" x="-25" y="-25" width="50" height="50" display="none"/>
  <circle cx="0" cy="0" r="23" fill="#9398DD"/>
  <path fill="#FFFFFF" transform="scale(0.6) translate(-25, -25)" d="M6 11v33.74c0 1.47 1.237 3.26 2.76 3.26h33.218c1.519 0 3.022-1.79 3.022-3.26v-33.74h-39zm19.46 26.776c-5.86 0-10.611-4.594-10.611-10.263s4.751-10.263 10.611-10.263 10.611 4.594 10.611 10.263c0 5.67-4.751 10.263-10.611 10.263zm16.518-36.776h-33.218c-1.523 0-2.76 1.033-2.76 2.505v5.495h39v-5.495c0-1.472-1.503-2.505-3.022-2.505zm-22.978 6h-11v-4h11v4zm19.146-.28c-1.249 0-2.258-.979-2.258-2.188 0-1.207 1.009-2.186 2.258-2.186s2.261.979 2.261 2.186c-.001 1.208-1.012 2.188-2.261 2.188z"/>
</svg>

<!-- Lodging: https://github.com/scottdejonge/map-icons/blob/master/src/icons/lodging.svg -->
<svg x="0" y="200" width="50" height="50" viewBox="-25 -25 50 50">
  <rect id="hotel" x="-25" y="-25" width="50" height="50" display="none"/>
  <circle cx="0" cy="0" r="23" fill="#F06292"/>
  <path fill="#FFFFFF" transform="scale(0.65) translate(-25, -25)" d="M46 32v8h4v-12h-46v-16.34c0-1.123-.869-2.042-2-2.042-1.127 0-2 .918-2 2.042v28.34h4v-8h42zm-35.67-12.148c2.041 0 3.687-1.653 3.687-3.694 0-2.027-1.646-3.675-3.687-3.675-2.038 0-3.683 1.647-3.683 3.675 0 2.04 1.645 3.694 3.683 3.694zm39.67 5.148l-.014-4.871c-.013-1.606-1.36-2.618-2.939-2.809l-28.957-2.833-.215-.009c-1.006 0-1.875.834-1.875 1.835v5.687h-7.453c-1.011 0-1.826.5-1.826 1.499 0 1.015.815 1.501 1.826 1.501h41.453z"/>
</svg>

<!-- generic marker -->
<svg x="50" y="200" width="50" height="50" viewBox="-25 -25 50 50">
  <rect id="generic" x="-25" y="-25" width="50" height="50" display="none"/>
  <circle cx="0" cy="0" r="23" fill="#78909C"/>
  <rect fill="#FFFFFF" x="-8" y="-8" width="16" height="16"/>
</svg>

<!-- Health: https://github.com/scottdejonge/map-icons/blob/master/src/icons/health.svg -->
<svg x="100" y="200" width="50" height="50" viewBox="-25 -25 50 50">
  <rect id="hospital" x="-25" y="-25" width="50" height="50" display="none"/>
  <circle cx="0" cy="0" r="23" fill="#EE675C"/>
  <path fill="#FFFFFF" transform="scale(0.6) translate(-25, -25)" d="M49 17c0-.55-.45-1-1-1h-13c-.55 0-1-.45-1-1v-13c0-.55-.45-1-1-1h-16c-.55 0-1 .45-1 1v13c0 .55-.45 1-1 1h-13c-.55 0-1 .45-1 1v16c0 .55.45 1 1 1h13c.55 0 1 .45 1 1v13c0 .55.45 1 1 1h16c.55 0 1-.45 1-1v-13c0-.55.45-1 1-1h13c.55 0 1-.45 1-1v-16z"/>
</svg>

<!-- peak -->
<svg x="150" y="200" width="50" height="50" viewBox="-25 -25 50 50">
  <rect id="peak" x="-25" y="-25" width="50" height="50" display="none"/>
  <path fill="#000000" d="M -15 10l30 0l-15 -20z"/>
</svg>

<!-- one way arrow -->
<svg x="200" y="200" width="50" height="50" viewBox="-25 -25 50 50">
  <rect id="arrow" x="-25" y="-25" width="50" height="50" display="none"/>
  <path fill="#333" transform="rotate(90) scale(0.25) translate(-105, -210)" d="m 169.26688,222.66539 -83.4725,0 5.14,15.41125 c 0.16375,0.4925 0.2525,1.01875 0.2525,1.56625 0,2.73875 -2.22,4.9575 -4.9575,4.9575 -1.03875,0 -2.0025,-0.31875 -2.79875,-0.865 l -48.56875,-33.845 48.56875,-33.845 c 0.79625,-0.545 1.76,-0.865 2.79875,-0.865 2.7375,0 4.9575,2.22 4.9575,4.9575 0,0.5475 -0.0887,1.07375 -0.2525,1.56625 l -5.14,15.41125 83.4725,0 0,25.55 z"/>
</svg>

<!-- Interstate shield: https://upload.wikimedia.org/wikipedia/commons/f/fa/I-blank.svg -->
<svg x="250" y="200" width="50" height="50" viewBox="-25 -25 50 50">
  <rect id="shield" x="-25" y="-25" width="50" height="50" display="none"/>
  <g transform="scale(0.075) translate(-300, -300)">
    <g transform="matrix(0.9983361,0,0,0.9983377,0.4991681,0.4986858)" fill="#ffffff" stroke="#000000" stroke-width="1">
      <path d="M 80.75293,0 C 115.42871,10.583496 152.23779,16.276856 190.37695,16.276856 C 228.51563,16.276856 265.32422,10.583496 300,0.0004883 C 334.67578,10.583496 371.48438,16.276856 409.62305,16.276856 C 447.76172,16.276856 484.57129,10.583496 519.24707,0 C 569.8125,63.908203 600,144.67822 600,232.5 C 600,413.92383 471.16992,565.25391 300,599.99902 C 128.83008,565.25391 0,413.92383 0,232.5 C 0,144.67822 30.187988,63.907715 80.75293,0 z " />
      <path d="M 80.75293,0 C 115.42871,10.583496 152.23779,16.276856 190.37695,16.276856 C 228.51563,16.276856 265.32422,10.583496 300,0.0004883 C 334.67578,10.583496 371.48438,16.276856 409.62305,16.276856 C 447.76172,16.276856 484.57129,10.583496 519.24707,0 C 569.8125,63.908203 600,144.67822 600,232.5 C 600,413.92383 471.16992,565.25391 300,599.99902 C 128.83008,565.25391 0,413.92383 0,232.5 C 0,144.67822 30.187988,63.907715 80.75293,0 z " />
    </g>
    <path fill="#003f87" transform="matrix(1.0070935,0,0,1.0102847,-2.1280324,-3.66885)" d="M 15,232.5 C 15,200.521 19.169434,169.51611 26.994629,139.99902 L 573.00586,139.99902 C 580.83008,169.51611 585,200.521 585,232.5 C 585,405.60547 462.82617,550.17188 300,584.67676 C 137.17432,550.17188 15,405.60547 15,232.5 z " />
    <path fill="#af1e2d" transform="matrix(1.0125461,0,0,1.0271486,-3.7638021,-3.1017481)" d="M 31.324219,124.99902 C 43.579102,85.77832 62.362793,49.44043 86.402832,17.259766 C 119.50439,26.392578 154.37061,31.272461 190.37695,31.272461 C 228.4375,31.272461 265.22461,25.820801 300,15.654785 C 334.77539,25.820801 371.5625,31.272461 409.62305,31.272461 C 445.62891,31.272461 480.49609,26.392578 513.59766,17.259766 C 537.63672,49.44043 556.4209,85.77832 568.67578,124.99902 L 31.324219,124.99902 L 31.324219,124.99902 z " />
  </g>
</svg>

<!-- University: https://github.com/scottdejonge/map-icons/blob/master/src/icons/university.svg -->
<svg x="0" y="250" width="50" height="50" viewBox="-25 -25 50 50">
  <rect id="university" x="-25" y="-25" width="50" height="50" display="none"/>
  <circle cx="0" cy="0" r="23" fill="#12A7BC"/>
  <path fill="#FFFFFF" transform="scale(0.75) translate(-25, -25)" d="M24.999 27.381c-5.406 0-9.999 1.572-12.999 4.036v4.583h26v-4.583c-3-2.464-7.594-4.036-13.001-4.036zm23.871-2.352l-23.934-11.029-23.924 11.029 3.988 1.825v2.807c-1 .207-1.003.731-1.003 1.354 0 .368.122.799.354 1.057l-1.368 2.928h4.88l-1.356-2.93c.228-.258.415-.638.415-1.006 0-.622-.922-1.197-.922-1.404v-2.337l5 2.246v-.199c3-2.609 8.271-4.265 13.998-4.265 5.729 0 11.002 1.656 14.002 4.265v.199l9.87-4.54z"/>
</svg>

<!-- Museum: https://github.com/scottdejonge/map-icons/blob/master/src/icons/museum.svg -->
<svg x="50" y="250" width="50" height="50" viewBox="-25 -25 50 50">
  <rect id="museum" x="-25" y="-25" width="50" height="50" display="none"/>
  <circle cx="0" cy="0" r="23" fill="#12B5CB"/>
  <path fill="#FFFFFF" transform="scale(0.65) translate(-25, -27)" d="M9.27 19h3.916l.602 18h-5.039l.521-18zm-3.27 19h38v2h3v3h2v2h-48v-2h2v-3h3v-2zm40-24.188l-20.998-8.812-21.002 8.812v1.188h42v-1.188zm-38 2.188h34v2h-34v-2zm28.736 3h3.914l.607 18h-5.046l.525-18zm-9.152 0h3.914l.6 18h-5.041l.527-18zm-9.154 0h3.915l.596 18h-5.039l.528-18z"/>
</svg>

<!-- Church: https://github.com/mapbox/maki/blob/main/icons/religious-christian.svg -->
<svg x="100" y="250" width="50" height="50" viewBox="-25 -25 50 50">
  <rect id="church" x="-25" y="-25" width="50" height="50" display="none"/>
  <circle cx="0" cy="0" r="23" fill="#12B5CB"/>
  <path fill="#FFFFFF" transform="scale(2.0) translate(-7.5, -7.5)" d="M6,0.9552V4H3v3h3v8h3V7h3V4H9V1 c0-1-0.9776-1-0.9776-1H6.9887C6.9887,0,6,0,6,0.9552z"/>
</svg>

<!-- Book: https://github.com/mapbox/maki/blame/main/icons/library.svg -->
<svg x="150" y="250" width="50" height="50" viewBox="-25 -25 50 50">
  <rect id="library" x="-25" y="-25" width="50" height="50" display="none"/>
  <circle cx="0" cy="0" r="23" fill="#12B5CB"/>
  <path fill="#FFFFFF" transform="scale(2.1) translate(-7.5, -7.5)" d="M1.0819,9.9388C0.9871,9.867,1.0007,9.7479,1.0007,9.7479L1.5259,3.5c0,0,0.0082-0.0688,0.0388-0.104 C1.584,3.374,1.6084,3.342,1.6544,3.3232C2.1826,3.1072,5.0537,1.5519,6.5,3c0.2397,0.2777,0.4999,0.6876,0.4999,1v5.2879 c0,0,0.0062,0.1122-0.0953,0.1801c-0.0239,0.016-0.124,0.0616-0.242,0.0026c-2.2253-1.1134-4.711,0.1546-5.3381,0.4871 C1.1987,10.0244,1.1006,9.9531,1.0819,9.9388z M13.6754,9.9577c-0.6271-0.3325-3.1128-1.6005-5.3381-0.4871 c-0.118,0.059-0.2181,0.0134-0.242-0.0026C7.9939,9.4001,8.0001,9.2879,8.0001,9.2879V4c0-0.3124,0.2602-0.7223,0.4999-1 c1.4463-1.4481,4.2991,0.1071,4.8273,0.3232c0.046,0.0188,0.0704,0.0508,0.0897,0.0728C13.4476,3.4312,13.4558,3.5,13.4558,3.5 l0.5435,6.2479c0,0,0.0136,0.1191-0.0812,0.1909C13.8994,9.9531,13.8013,10.0244,13.6754,9.9577z M8.8647,12.6863 c0.0352-0.0085,0.0964-0.0443,0.1179-0.0775c0.0236-0.0364,0.0378-0.0617,0.0423-0.1088c0.0495-0.9379,1.6245-1.8119,4.6477-0.0298 c0.0775,0.0441,0.1666,0.0396,0.2425-0.0155C14.0014,12.392,14,12.2859,14,12.2859v-0.5542c0,0,0.0003-0.0764-0.0272-0.1184 c-0.0205-0.0312-0.0476-0.0643-0.0926-0.0858c-2.0254-1.3145-4.5858-1.8972-5.8854-0.1592 c-0.0181,0.0423-0.0353,0.0613-0.0728,0.0905C7.8654,11.5028,7.7964,11.5,7.7964,11.5H7.2109c0,0-0.069,0.0028-0.1256-0.0412 c-0.0375-0.0292-0.0547-0.0482-0.0728-0.0905c-1.2996-1.738-3.86-1.1828-5.8854,0.1317c-0.045,0.0215-0.0721,0.0546-0.0926,0.0858 c-0.0275,0.042-0.0272,0.1184-0.0272,0.1184v0.5542c0,0-0.0014,0.1061,0.0849,0.1688c0.0759,0.0551,0.165,0.0596,0.2425,0.0155 c3.0232-1.7821,4.5982-0.8806,4.6477,0.0573c0.0045,0.0471,0.0187,0.0724,0.0423,0.1088c0.0215,0.0332,0.0827,0.069,0.1179,0.0775 C6.8645,12.8656,7.9112,12.9363,8.8647,12.6863z"/>
</svg>

<!-- Theatre: https://github.com/mapbox/maki/blob/main/icons/theatre.svg -->
<svg x="200" y="250" width="50" height="50" viewBox="-25 -25 50 50">
  <rect id="theatre" x="-25" y="-25" width="50" height="50" display="none"/>
  <circle cx="0" cy="0" r="23" fill="#12B5CB"/>
  <path fill="#FFFFFF" transform="scale(2.0) translate(-7.25, -7.25)" d="M2,1c0,0-1,0-1,1v5.1582C1,8.8885,1.354,11,4.5,11H5V8L2.5,9c0,0,0-2.5,2.5-2.5V5 c0-0.7078,0.0868-1.3209,0.5-1.7754C5.8815,2.805,6.5046,1.9674,8.1562,2.7539L9,3.3027V2c0,0,0-1-1-1C7.2922,1,6.0224,2,5,2 S2.7865,1,2,1z M3,3c0.5523,0,1,0.4477,1,1S3.5523,5,3,5S2,4.5523,2,4S2.4477,3,3,3z M7,4c0,0-1,0-1,1v5c0,2,1,4,4,4s4-2,4-4V5 c0-1-1-1-1-1c-0.7078,0-1.9776,1-3,1S7.7865,4,7,4z M8,6c0.5523,0,1,0.4477,1,1S8.5523,8,8,8S7,7.5523,7,7S7.4477,6,8,6z M12,6 c0.5523,0,1,0.4477,1,1s-0.4477,1-1,1s-1-0.4477-1-1S11.4477,6,12,6z M7.5,10H10h2.5c0,0,0,2.5-2.5,2.5S7.5,10,7.5,10z"/>
</svg>

<!-- Tree: https://www.svgrepo.com/svg/107254/tree-silhouette -->
<svg x="0" y="300" width="50" height="50" viewBox="-25 -25 50 50">
  <rect id="tree" x="-25" y="-25" width="50" height="50" display="none"/>
  <circle cx="0" cy="0" r="23" fill="#34A853"/>
  <polygon transform="scale(1.0) translate(-15.719, -15.719)" fill="#FFFFFF" points="28.936,26.393 23.07,19.311 27.395,19.311 20.268,10.709 24.591,10.709 15.718,0 6.846,10.709 11.17,10.709 4.043,19.311 8.367,19.311 2.502,26.393 11.377,26.393 11.377,31.438 20.061,31.438 20.061,26.393"/>
</svg>

<!-- Golf: https://github.com/scottdejonge/map-icons/blame/eb12ba43b1684f2b5d2360820aeac5175af130ac/src/activities/land/golf.svg -->
<svg x="50" y="300" width="50" height="50" viewBox="-25 -25 50 50">
  <rect id="golf" x="-25" y="-25" width="50" height="50" display="none"/>
  <circle cx="0" cy="0" r="23" fill="#34A853"/>
  <g fill="#FFFFFF" transform="scale(0.075) translate(-300, -290)">
    <path d="M361.15,351.863h-0.606c-19.078,9.082-40.406,14.173-62.903,14.173s-43.826-5.092-62.903-14.173h-0.607 				c0,0-8.13,16.901,8.204,22.901c6,2.667,45,27.667,45,129.667c0,0,2,4.333,10.307,4.333s10.307-4.333,10.307-4.333 				c0-102,39-127,45-129.667C369.28,368.764,361.15,351.863,361.15,351.863z"/>
    <path transform="translate(0, -15)" d="M297.64,351.863c-73.156,0-132.673-59.518-132.673-132.673c0-73.156,59.517-132.674,132.673-132.674 				c73.156,0,132.673,59.518,132.673,132.674C430.313,292.345,370.796,351.863,297.64,351.863z"/>
  </g>
</svg>

<!-- water drop: https://www.svgrepo.com/svg/360938/water-drop-f -->
<svg x="0" y="350" width="50" height="50" viewBox="-25 -25 50 50">
  <rect id="drinking_water" x="-25" y="-25" width="50" height="50" display="none"/>
  <rect x="-22.5" y="-22.5" width="45" height="45" rx="6" ry="6" fill="#1A73E8"/>
  <path fill="#FFFFFF" transform="scale(1.4) translate(-7, -11)" d='M7 .565c4.667 6.09 7 10.423 7 13a7 7 0 1 1-14 0c0-2.577 2.333-6.91 7-13z' />
</svg>

<!-- Viewpoint: https://github.com/scottdejonge/map-icons/blob/master/src/icons/natural-feature.svg -->
<svg x="50" y="350" width="50" height="50" viewBox="-25 -25 50 50">
  <rect id="viewpoint" x="-25" y="-25" width="50" height="50" display="none"/>
  <rect x="-22.5" y="-22.5" width="45" height="45" rx="6" ry="6" fill="#1A73E8"/>
  <g fill="#FFFFFF" transform="scale(0.65) translate(-25, -25)">
    <path d="M12 1h9v7h-9zm18.723 28.822c-.873 0-1.723-.891-1.723-1.77v-18.052h14.187l5.829 24.878-.016 1.476v11.056c0 .85-.707 1.59-1.549 1.59h-13.421c-.833 0-1.03-.74-1.03-1.59v-17.41h-2m-11.719-.158c.866 0 1.719-.859 1.719-1.744v-18.098h-14.178l-5.836 24.892.014 1.508v11.053c0 .854.707 1.547 1.548 1.547h13.405c.854 0 1.047-.693 1.047-1.547v-17.453h2"/>
    <path d="M23 10h4v17h-4zm6-9h10v7h-10z"/>
  </g>
</svg>

<!-- Toilet: https://github.com/scottdejonge/map-icons/blob/master/src/icons/toilet.svg -->
<svg x="100" y="350" width="50" height="50" viewBox="-25 -25 50 50">
  <rect id="toilet" x="-25" y="-25" width="50" height="50" display="none"/>
  <rect x="-22.5" y="-22.5" width="45" height="45" rx="6" ry="6" fill="#1A73E8"/>
  <g fill="#FFFFFF" transform="scale(0.65) translate(-25, -25)">
    <path d="M6 47.5c0 1.233.768 2 2 2 1.235 0 2-.767 2-2v-18.5h2v18.5c0 1.231.767 2 2 2s2-.767 2-2v-31.5h1v11.314c0 2.395 3.006 2.395 3 0v-12.153c0-2.646-1.906-4.161-5-4.161h-8c-2.82 0-5 1.219-5 4.087v12.913c0 2 3 2 3 0v-12h1v31.5z"/>
    <circle cx="10.875" cy="5.125" r="4.125"/>
    <circle cx="35.875" cy="5.125" r="4.125"/>
    <path d="M45.913 32.5l-5.909-16.237-.034-.167c0-.237.199-.429.447-.429.211 0 .388.141.435.329l4.017 10.504c.267.601 1.365 1 2.087 1 .965 0 1.065-1.895 1.044-2l-4.017-10.107c-.349-2.321-2.693-4.393-5.368-4.393h-5.235c-2.675 0-5.192 2.072-5.542 4.393l-3.837 10.232c-.087.199 0 1.938 1.044 1.938.811 0 1.89-.314 2.086-1.031l3.875-10.564c.062-.166.229-.292.422-.292.246 0 .445.188.445.424l-.027.151-5.758 16.251c-.012.048 0 1.2 0 1.249 0 .346.836 1.25 1.198 1.25h3.714v12.595c0 1.04.916 1.905 2 1.905s2-.866 2-1.905v-13.105c0-.283 2-.274 2 .009v13c0 1.04.917 2 2 2 1.086 0 2-.961 2-2v-12.5h3.869c.362 0 1.044-.904 1.044-1.25 0-.08.029-1.181 0-1.25z"/>
  </g>
</svg>

<!-- Parking: https://github.com/scottdejonge/map-icons/blob/master/src/icons/parking.svg -->
<svg x="150" y="350" width="50" height="50" viewBox="-25 -25 50 50">
  <rect id="parking" x="-25" y="-25" width="50" height="50" display="none"/>
  <rect x="-22.5" y="-22.5" width="45" height="45" rx="6" ry="6" fill="#1A73E8"/>
  <path fill="#FFFFFF" transform="scale(0.65) translate(-25, -25)" d="M29.617 0h-22.617v50h11v-16h11.617c12.464 0 17.294-9.871 17.294-18.02 0-8.107-4.83-15.98-17.294-15.98zm-3.013 24h-8.604v-15h8.604c5.113 0 9.668 1.128 9.668 7.487-.001 6.398-4.555 7.513-9.668 7.513z"/>
</svg>

<!-- Bus: https://materialdesignicons.com/icon/bus -->
<svg x="200" y="350" width="50" height="50" viewBox="-25 -25 50 50">
  <rect id="bus" x="-25" y="-25" width="50" height="50" display="none"/>
  <rect x="-22.5" y="-22.5" width="45" height="45" rx="6" ry="6" fill="#1A73E8"/>
  <path fill="#FFFFFF" transform="scale(1.8) translate(-12, -12)" d="M18,11H6V6H18M16.5,17A1.5,1.5 0 0,1 15,15.5A1.5,1.5 0 0,1 16.5,14A1.5,1.5 0 0,1 18,15.5A1.5,1.5 0 0,1 16.5,17M7.5,17A1.5,1.5 0 0,1 6,15.5A1.5,1.5 0 0,1 7.5,14A1.5,1.5 0 0,1 9,15.5A1.5,1.5 0 0,1 7.5,17M4,16C4,16.88 4.39,17.67 5,18.22V20A1,1 0 0,0 6,21H7A1,1 0 0,0 8,20V19H16V20A1,1 0 0,0 17,21H18A1,1 0 0,0 19,20V18.22C19.61,17.67 20,16.88 20,16V6C20,2.5 16.42,2 12,2C7.58,2 4,2.5 4,6V16Z"/>
</svg>

<!-- Train: https://materialdesignicons.com/icon/train -->
<svg x="250" y="350" width="50" height="50" viewBox="-25 -25 50 50">
  <rect id="train" x="-25" y="-25" width="50" height="50" display="none"/>
  <rect x="-22.5" y="-22.5" width="45" height="45" rx="6" ry="6" fill="#1A73E8"/>
  <path fill="#FFFFFF" transform="scale(1.8) translate(-12, -12)" d="M12,2C8,2 4,2.5 4,6V15.5A3.5,3.5 0 0,0 7.5,19L6,20.5V21H8.23L10.23,19H14L16,21H18V20.5L16.5,19A3.5,3.5 0 0,0 20,15.5V6C20,2.5 16.42,2 12,2M7.5,17A1.5,1.5 0 0,1 6,15.5A1.5,1.5 0 0,1 7.5,14A1.5,1.5 0 0,1 9,15.5A1.5,1.5 0 0,1 7.5,17M11,10H6V6H11V10M13,10V6H18V10H13M16.5,17A1.5,1.5 0 0,1 15,15.5A1.5,1.5 0 0,1 16.5,14A1.5,1.5 0 0,1 18,15.5A1.5,1.5 0 0,1 16.5,17Z"/>
</svg>

<!-- Hospital: https://github.com/scottdejonge/map-icons/blob/master/src/icons/hospital.svg -->
<!-- blue is the standard road sign color; alternative is #EE675C -->
<svg x="0" y="400" width="50" height="50" viewBox="-25 -25 50 50">
  <rect x="-22.5" y="-22.5" width="45" height="45" rx="6" ry="6" fill="#1A73E8"/>
  <path fill="#FFFFFF" transform="scale(0.09) translate(-275, -292)" d="M125.73665 92.095291h69.47169V244.72249h161.048V92.095291h83.15551V494.189h-83.15551V323.66759h-161.048V494.189h-83.15551V92.095291z"/>
</svg>

<!-- Metro: https://upload.wikimedia.org/wikipedia/commons/0/0a/WMATA_Metro_Logo_small.svg -->
<svg x="50" y="400" width="50" height="50" viewBox="-25 -25 50 50">
  <rect id="metro" x="-25" y="-25" width="50" height="50" display="none"/>
  <rect x="-22.5" y="-22.5" width="45" height="45" rx="6" ry="6" fill="#1A73E8"/>
  <path fill="#FFFFFF" transform="scale(0.1) translate(-395, -425)" d="M 231.56764,261.50164 L 231.56764,424.97039 L 231.56764,588.43914 L 264.16139,588.43914 L 296.75514,588.43914 L 296.81764,474.84539 L 296.91139,361.28289 L 327.78639,469.15789 C 344.77761,528.48562 359.43739,579.585 360.34889,582.72039 L 362.00514,588.43914 L 394.53639,588.43914 L 427.06764,588.43914 L 428.72389,582.72039 C 429.63538,579.58499 444.29514,528.48563 461.28639,469.15789 L 492.16139,361.28289 L 492.22389,474.84539 L 492.31764,588.43914 L 524.91139,588.43914 L 557.50514,588.43914 L 557.50514,424.97039 L 557.50514,261.50164 L 508.59889,261.50164 L 459.72389,261.53289 L 427.22389,370.06414 C 409.35625,429.76726 394.69872,478.71144 394.63014,478.81414 C 394.56153,478.9169 379.826,430.05662 361.91139,370.25164 L 329.34889,261.53289 L 280.47389,261.50164 L 231.56764,261.50164 z "/>
</svg>

<!-- Tram: https://materialdesignicons.com/icon/tram -->
<svg x="100" y="400" width="50" height="50" viewBox="-25 -25 50 50">
  <rect id="tram" x="-25" y="-25" width="50" height="50" display="none"/>
  <rect x="-22.5" y="-22.5" width="45" height="45" rx="6" ry="6" fill="#1A73E8"/>
  <path fill="#FFFFFF" transform="scale(1.8) translate(-12, -12)" d="M19,16.94V8.5C19,5.71 16.39,5.1 13,5L13.75,3.5H17V2H7V3.5H11.75L11,5C7.86,5.11 5,5.73 5,8.5V16.94C5,18.39 6.19,19.6 7.59,19.91L6,21.5V22H8.23L10.23,20H14L16,22H18V21.5L16.5,20H16.42C18.11,20 19,18.63 19,16.94M12,18.5A1.5,1.5 0 0,1 10.5,17A1.5,1.5 0 0,1 12,15.5A1.5,1.5 0 0,1 13.5,17A1.5,1.5 0 0,1 12,18.5M17,14H7V9H17V14Z"/>
</svg>

</svg>
