<svg xmlns="http://www.w3.org/2000/svg" width="384px" height="512px" viewBox="0 0 300 400">

<!-- nanosvg doesn't support use, so just cut and paste for now -->
<defs>
  <circle id="poi-bg" r="23"/>
</defs>

<!-- Restaurant: https://github.com/scottdejonge/map-icons/blob/master/src/icons/restaurant.svg -->
<svg x="0" y="0" width="50" height="50" viewBox="-25 -25 50 50">
  <circle cx="0" cy="0" r="23" fill="#F29900"/>
  <path fill="#FFFFFF" transform="scale(0.65) translate(-25, -25)" d="M22 1.932v11.068h-2v-11c0-.552-.448-1-1-1s-1 .448-1 1v11h-2v-11.036c0-1.287-2-1.243-2-.033v11.069h-2v-10.99c0-1.363-2-1.313-2-.054v14.472c0 2.087 2 3.463 4 3.463v26.109c0 4 6 4 6 0v-26.108c2 0 4-1.662 4-3.227v-14.701c0-1.275-2-1.226-2-.032zm9 3.068v25h2v16c0 4 7 4 7 0v-41c0-5-9-5-9 0z"/>
</svg>

<!-- Cafe: https://github.com/scottdejonge/map-icons/blob/master/src/icons/cafe.svg -->
<svg x="50" y="0" width="50" height="50" viewBox="-25 -25 50 50">
  <circle cx="0" cy="0" r="23" fill="#F29900"/>
  <path fill="#FFFFFF" transform="scale(0.65) translate(-25, -25)" d="M37 7h-28v27c0 2.2 1.8 4 4 4h20c2.2 0 4-1.8 4-4v-5c6.076 0 11-4.925 11-11s-4.924-11-11-11zm0 17v-12c3.314 0 6 2.686 6 6 0 3.313-2.686 6-6 6zm-35 16v2.301c0 1.896 2.069 2.699 4.6 2.699h36.8c2.53 0 4.6-.803 4.6-2.699v-2.301h-46z"/>
</svg>

<!-- Bar: https://github.com/mapbox/maki/blame/main/icons/bar.svg -->
<svg x="100" y="0" width="50" height="50" viewBox="-25 -25 50 50">
  <circle cx="0" cy="0" r="23" fill="#F29900"/>
  <path fill="#FFFFFF" transform="scale(2.0) translate(-7.5, -7.5)" d="M7.5,1c-2,0-7,0.25-6.5,0.75L7,8v4 c0,1-3,0.5-3,2h7c0-1.5-3-1-3-2V8l6-6.25C14.5,1.25,9.5,1,7.5,1z M7.5,2c2.5,0,4.75,0.25,4.75,0.25L11.5,3h-8L2.75,2.25 C2.75,2.25,5,2,7.5,2z"/>
</svg>

<!-- Grocery: https://github.com/scottdejonge/map-icons/blob/master/src/icons/grocery-or-supermarket.svg -->
<svg x="0" y="50" width="50" height="50" viewBox="-25 -25 50 50">
  <circle cx="0" cy="0" r="23" fill="#5491F5"/>
  <g fill="#FFFFFF" transform="scale(0.625) translate(-25, -25)">
    <circle cx="44" cy="42" r="4"/>
    <circle cx="15" cy="42" r="4"/>
    <path d="M47 33h-31.229l.667-1.082c.286-.464.37-1.025.233-1.553l-.651-2.506 28.983-1.506c1.099-.056 1.997-1.003 1.997-2.103v-13.25c0-1.1-.9-2-2-2h-33.881l-.391-1.503c-.229-.882-1.025-1.497-1.936-1.497h-6.792c-1.104 0-2 .896-2 2s.896 2 2 2h5.246l5.34 20.545-2.1 3.405c-.38.617-.397 1.392-.043 2.024.352.633 1.02 1.026 1.745 1.026h34.812c1.104 0 2-.896 2-2s-.896-2-2-2z"/>
  </g>
</svg>

<!-- Convenience Store: https://github.com/scottdejonge/map-icons/blob/master/src/icons/convenience-store.svg -->
<svg x="50" y="50" width="50" height="50" viewBox="-25 -25 50 50">
  <circle cx="0" cy="0" r="23" fill="#5491F5"/>
  <path fill="#FFFFFF" transform="scale(0.65) translate(-25, -25)" d="M41 19h-.272c-.074-.128-.16-.252-.266-.365l-11.544-12.368c.051-.247.082-.503.082-.767 0-1.933-1.424-3.5-3.182-3.5h-3.637c-1.757 0-3.181 1.567-3.181 3.5 0 .264.032.52.082.767l-11.544 12.368c-.105.113-.191.237-.266.365h-5.272v7h2v15c0 2.762 2.239 5 5 5h32c2.762 0 5-2.238 5-5v-15h2v-7h-7zm-18.818-10h3.637l.163-.018 9.349 10.018h-22.662l9.35-10.018.163.018zm-9.182 31c0 1.1-.9 2-2 2s-2-.9-2-2v-12c0-1.1.9-2 2-2s2 .9 2 2v12zm9 0c0 1.1-.9 2-2 2s-2-.9-2-2v-12c0-1.1.9-2 2-2s2 .9 2 2v12zm10 0c0 1.1-.9 2-2 2s-2-.9-2-2v-12c0-1.1.9-2 2-2s2 .9 2 2v12zm9 0c0 1.1-.9 2-2 2s-2-.9-2-2v-12c0-1.1.9-2 2-2s2 .9 2 2v12z"/>
</svg>

<!-- Shopping: https://github.com/scottdejonge/map-icons/blob/master/src/icons/department-store.svg -->
<svg x="100" y="50" width="50" height="50" viewBox="-25 -25 50 50">
  <circle cx="0" cy="0" r="23" fill="#5491F5"/>
  <path fill="#FFFFFF" transform="scale(0.65) translate(-25, -26)" d="M34 11v-3.036c0-2.481-2.109-4.964-4.589-4.964h-8.343c-2.479 0-5.068 2.483-5.068 4.964v3.036h-5.312l-5.688 35h40.187l-5.778-35h-5.409zm-15-3.036c0-.929 1.14-1.964 2.068-1.964h8.343c.927 0 1.589 1.035 1.589 1.964v3.036h-12v-3.036z"/>
</svg>

<!-- Book: https://github.com/mapbox/maki/blame/main/icons/library.svg -->
<svg x="150" y="50" width="50" height="50" viewBox="-25 -25 50 50">
  <circle cx="0" cy="0" r="23" fill="#5491F5"/>
  <path fill="#FFFFFF" transform="scale(2.0) translate(-7.5, -7.5)" d="M1.0819,9.9388C0.9871,9.867,1.0007,9.7479,1.0007,9.7479L1.5259,3.5c0,0,0.0082-0.0688,0.0388-0.104 C1.584,3.374,1.6084,3.342,1.6544,3.3232C2.1826,3.1072,5.0537,1.5519,6.5,3c0.2397,0.2777,0.4999,0.6876,0.4999,1v5.2879 c0,0,0.0062,0.1122-0.0953,0.1801c-0.0239,0.016-0.124,0.0616-0.242,0.0026c-2.2253-1.1134-4.711,0.1546-5.3381,0.4871 C1.1987,10.0244,1.1006,9.9531,1.0819,9.9388z M13.6754,9.9577c-0.6271-0.3325-3.1128-1.6005-5.3381-0.4871 c-0.118,0.059-0.2181,0.0134-0.242-0.0026C7.9939,9.4001,8.0001,9.2879,8.0001,9.2879V4c0-0.3124,0.2602-0.7223,0.4999-1 c1.4463-1.4481,4.2991,0.1071,4.8273,0.3232c0.046,0.0188,0.0704,0.0508,0.0897,0.0728C13.4476,3.4312,13.4558,3.5,13.4558,3.5 l0.5435,6.2479c0,0,0.0136,0.1191-0.0812,0.1909C13.8994,9.9531,13.8013,10.0244,13.6754,9.9577z M8.8647,12.6863 c0.0352-0.0085,0.0964-0.0443,0.1179-0.0775c0.0236-0.0364,0.0378-0.0617,0.0423-0.1088c0.0495-0.9379,1.6245-1.8119,4.6477-0.0298 c0.0775,0.0441,0.1666,0.0396,0.2425-0.0155C14.0014,12.392,14,12.2859,14,12.2859v-0.5542c0,0,0.0003-0.0764-0.0272-0.1184 c-0.0205-0.0312-0.0476-0.0643-0.0926-0.0858c-2.0254-1.3145-4.5858-1.8972-5.8854-0.1592 c-0.0181,0.0423-0.0353,0.0613-0.0728,0.0905C7.8654,11.5028,7.7964,11.5,7.7964,11.5H7.2109c0,0-0.069,0.0028-0.1256-0.0412 c-0.0375-0.0292-0.0547-0.0482-0.0728-0.0905c-1.2996-1.738-3.86-1.1828-5.8854,0.1317c-0.045,0.0215-0.0721,0.0546-0.0926,0.0858 c-0.0275,0.042-0.0272,0.1184-0.0272,0.1184v0.5542c0,0-0.0014,0.1061,0.0849,0.1688c0.0759,0.0551,0.165,0.0596,0.2425,0.0155 c3.0232-1.7821,4.5982-0.8806,4.6477,0.0573c0.0045,0.0471,0.0187,0.0724,0.0423,0.1088c0.0215,0.0332,0.0827,0.069,0.1179,0.0775 C6.8645,12.8656,7.9112,12.9363,8.8647,12.6863z"/>
</svg>

<!-- Lodging: https://github.com/scottdejonge/map-icons/blob/master/src/icons/lodging.svg -->
<svg x="0" y="100" width="50" height="50" viewBox="-25 -25 50 50">
  <circle cx="0" cy="0" r="23" fill="#F06292"/>
  <path fill="#FFFFFF" transform="scale(0.65) translate(-25, -25)" d="M46 32v8h4v-12h-46v-16.34c0-1.123-.869-2.042-2-2.042-1.127 0-2 .918-2 2.042v28.34h4v-8h42zm-35.67-12.148c2.041 0 3.687-1.653 3.687-3.694 0-2.027-1.646-3.675-3.687-3.675-2.038 0-3.683 1.647-3.683 3.675 0 2.04 1.645 3.694 3.683 3.694zm39.67 5.148l-.014-4.871c-.013-1.606-1.36-2.618-2.939-2.809l-28.957-2.833-.215-.009c-1.006 0-1.875.834-1.875 1.835v5.687h-7.453c-1.011 0-1.826.5-1.826 1.499 0 1.015.815 1.501 1.826 1.501h41.453z"/>
</svg>

<!-- generic marker -->
<svg x="50" y="100" width="50" height="50" viewBox="-25 -25 50 50">
  <circle cx="0" cy="0" r="23" fill="#78909C"/>
  <rect fill="#FFFFFF" x="-10" y="-10" width="20" height="20"/>
</svg>

<!-- peak -->
<svg x="100" y="100" width="50" height="50" viewBox="-25 -25 50 50">
  <path fill="#000000" d="M -15 10l30 0l-15 -20z"/>
</svg>

<!-- University: https://github.com/scottdejonge/map-icons/blob/master/src/icons/university.svg -->
<!-- grey: #78909C -->
<svg x="0" y="150" width="50" height="50" viewBox="-25 -25 50 50">
  <circle cx="0" cy="0" r="23" fill="#12B5CB"/>
  <path fill="#FFFFFF" transform="scale(0.75) translate(-25, -25)" d="M24.999 27.381c-5.406 0-9.999 1.572-12.999 4.036v4.583h26v-4.583c-3-2.464-7.594-4.036-13.001-4.036zm23.871-2.352l-23.934-11.029-23.924 11.029 3.988 1.825v2.807c-1 .207-1.003.731-1.003 1.354 0 .368.122.799.354 1.057l-1.368 2.928h4.88l-1.356-2.93c.228-.258.415-.638.415-1.006 0-.622-.922-1.197-.922-1.404v-2.337l5 2.246v-.199c3-2.609 8.271-4.265 13.998-4.265 5.729 0 11.002 1.656 14.002 4.265v.199l9.87-4.54z"/>
</svg>

<!-- Museum: https://github.com/scottdejonge/map-icons/blob/master/src/icons/museum.svg -->
<svg x="50" y="150" width="50" height="50" viewBox="-25 -25 50 50">
  <circle cx="0" cy="0" r="23" fill="#12B5CB"/>
  <path fill="#FFFFFF" transform="scale(0.65) translate(-25, -27)" d="M9.27 19h3.916l.602 18h-5.039l.521-18zm-3.27 19h38v2h3v3h2v2h-48v-2h2v-3h3v-2zm40-24.188l-20.998-8.812-21.002 8.812v1.188h42v-1.188zm-38 2.188h34v2h-34v-2zm28.736 3h3.914l.607 18h-5.046l.525-18zm-9.152 0h3.914l.6 18h-5.041l.527-18zm-9.154 0h3.915l.596 18h-5.039l.528-18z"/>
</svg>

<!-- Tree: https://www.svgrepo.com/svg/107254/tree-silhouette -->
<svg x="0" y="200" width="50" height="50" viewBox="-25 -25 50 50">
  <circle cx="0" cy="0" r="23" fill="#34A853"/>
  <polygon transform="scale(1.0) translate(-15.719, -15.719)" fill="#FFFFFF" points="28.936,26.393 23.07,19.311 27.395,19.311 20.268,10.709 24.591,10.709 15.718,0 6.846,10.709 11.17,10.709 4.043,19.311 8.367,19.311 2.502,26.393 11.377,26.393 11.377,31.438 20.061,31.438 20.061,26.393"/>
</svg>

<!-- Golf: https://github.com/scottdejonge/map-icons/blame/eb12ba43b1684f2b5d2360820aeac5175af130ac/src/activities/land/golf.svg -->
<svg x="50" y="200" width="50" height="50" viewBox="-25 -25 50 50">
  <circle cx="0" cy="0" r="23" fill="#34A853"/>
  <g fill="#FFFFFF" transform="scale(0.65) translate(-25, -25)">
    <path d="M19.922,9.076c-1.97,0-3.565,1.576-3.565,3.52c0,1.954,1.595,3.529,3.565,3.529c1.96,0,3.555-1.576,3.555-3.529 C23.477,10.652,21.883,9.076,19.922,9.076z"/>
    <path d="M37.973,16.039c-0.128-0.756-0.754-1.188-0.785-1.22L16.261,1L14.32,3.818c-0.361,0.562-0.206,1.295,0.347,1.663 c0.56,0.367,1.293,0.215,1.659-0.346l1.131-1.63l16.995,11.239l-13.926,2.516c-0.979,0.162-1.691,1.155-1.476,2.116l3.027,11.747 l-9.793,14.726c-0.587,1.004-0.232,2.3,0.781,2.871c1.022,0.583,2.324,0.228,2.905-0.777c0,0,10.221-15.405,10.264-15.503 c0,0,0.528,2.138,0.528,2.149L25.221,46.15c-0.193,1.145,0.593,2.224,1.745,2.418c1.163,0.195,2.262-0.583,2.457-1.727 l1.581-11.888c0.044-0.303-0.01-0.971-0.085-1.263L27.43,19.775l9.089-1.641C37.488,17.961,38.146,17.022,37.973,16.039z"/>
  </g>
</svg>

<!-- water drop: https://www.svgrepo.com/svg/360938/water-drop-f -->
<svg x="0" y="250" width="50" height="50" viewBox="-25 -25 50 50">
  <rect x="-22.5" y="-22.5" width="45" height="45" rx="6" ry="6" fill="#1A73E8"/>
  <path fill="#FFFFFF" transform="scale(1.4) translate(-7, -11)" d='M7 .565c4.667 6.09 7 10.423 7 13a7 7 0 1 1-14 0c0-2.577 2.333-6.91 7-13z' />
</svg>

<!-- Viewpoint: https://github.com/scottdejonge/map-icons/blob/master/src/icons/natural-feature.svg -->
<svg x="50" y="250" width="50" height="50" viewBox="-25 -25 50 50">
  <rect x="-22.5" y="-22.5" width="45" height="45" rx="6" ry="6" fill="#1A73E8"/>
  <g fill="#FFFFFF" transform="scale(0.65) translate(-25, -25)">
    <path d="M12 1h9v7h-9zm18.723 28.822c-.873 0-1.723-.891-1.723-1.77v-18.052h14.187l5.829 24.878-.016 1.476v11.056c0 .85-.707 1.59-1.549 1.59h-13.421c-.833 0-1.03-.74-1.03-1.59v-17.41h-2m-11.719-.158c.866 0 1.719-.859 1.719-1.744v-18.098h-14.178l-5.836 24.892.014 1.508v11.053c0 .854.707 1.547 1.548 1.547h13.405c.854 0 1.047-.693 1.047-1.547v-17.453h2"/>
    <path d="M23 10h4v17h-4zm6-9h10v7h-10z"/>
  </g>
</svg>

<!-- Toilet: https://github.com/scottdejonge/map-icons/blob/master/src/icons/toilet.svg -->
<svg x="100" y="250" width="50" height="50" viewBox="-25 -25 50 50">
  <rect x="-22.5" y="-22.5" width="45" height="45" rx="6" ry="6" fill="#1A73E8"/>
  <g fill="#FFFFFF" transform="scale(0.65) translate(-25, -25)">
    <path d="M6 47.5c0 1.233.768 2 2 2 1.235 0 2-.767 2-2v-18.5h2v18.5c0 1.231.767 2 2 2s2-.767 2-2v-31.5h1v11.314c0 2.395 3.006 2.395 3 0v-12.153c0-2.646-1.906-4.161-5-4.161h-8c-2.82 0-5 1.219-5 4.087v12.913c0 2 3 2 3 0v-12h1v31.5z"/>
    <circle cx="10.875" cy="5.125" r="4.125"/>
    <circle cx="35.875" cy="5.125" r="4.125"/>
    <path d="M45.913 32.5l-5.909-16.237-.034-.167c0-.237.199-.429.447-.429.211 0 .388.141.435.329l4.017 10.504c.267.601 1.365 1 2.087 1 .965 0 1.065-1.895 1.044-2l-4.017-10.107c-.349-2.321-2.693-4.393-5.368-4.393h-5.235c-2.675 0-5.192 2.072-5.542 4.393l-3.837 10.232c-.087.199 0 1.938 1.044 1.938.811 0 1.89-.314 2.086-1.031l3.875-10.564c.062-.166.229-.292.422-.292.246 0 .445.188.445.424l-.027.151-5.758 16.251c-.012.048 0 1.2 0 1.249 0 .346.836 1.25 1.198 1.25h3.714v12.595c0 1.04.916 1.905 2 1.905s2-.866 2-1.905v-13.105c0-.283 2-.274 2 .009v13c0 1.04.917 2 2 2 1.086 0 2-.961 2-2v-12.5h3.869c.362 0 1.044-.904 1.044-1.25 0-.08.029-1.181 0-1.25z"/>
  </g>
</svg>

<!-- Parking: https://github.com/scottdejonge/map-icons/blob/master/src/icons/parking.svg -->
<svg x="150" y="250" width="50" height="50" viewBox="-25 -25 50 50">
  <rect x="-22.5" y="-22.5" width="45" height="45" rx="6" ry="6" fill="#1A73E8"/>
  <path fill="#FFFFFF" transform="scale(0.65) translate(-25, -25)" d="M29.617 0h-22.617v50h11v-16h11.617c12.464 0 17.294-9.871 17.294-18.02 0-8.107-4.83-15.98-17.294-15.98zm-3.013 24h-8.604v-15h8.604c5.113 0 9.668 1.128 9.668 7.487-.001 6.398-4.555 7.513-9.668 7.513z"/>
</svg>

<!-- Bus: https://github.com/scottdejonge/map-icons/blob/master/src/icons/bus-station.svg -->
<svg x="200" y="250" width="50" height="50" viewBox="-25 -25 50 50">
  <rect x="-22.5" y="-22.5" width="45" height="45" rx="6" ry="6" fill="#1A73E8"/>
  <path fill="#FFFFFF" transform="scale(0.65) translate(-25, -25)" d="M41.162 25h-32.02c-.933 0-1.701-.802-1.701-1.714 0-.152.028-.324.059-.462l1.704-11.899c.145-.773.841-.925 1.674-.925h28.553c.827 0 1.529.139 1.672.909l1.704 12.116c.026.141.06.224.06.376-.001.912-.773 1.599-1.705 1.599zm-1.281 13.345c-1.803 0-3.265-1.419-3.265-3.188 0-1.757 1.462-3.174 3.265-3.174 1.791 0 3.256 1.417 3.256 3.174 0 1.769-1.465 3.188-3.256 3.188zm-29.501 0c-1.79 0-3.253-1.419-3.253-3.188 0-1.757 1.463-3.174 3.253-3.174 1.808 0 3.268 1.417 3.268 3.174 0 1.769-1.46 3.188-3.268 3.188zm5.62-35.345h20v3h-20c-2 0-2-3 0-3zm28.202 4.59c-.584-2.813-2.29-3.946-5.073-5.078-2.778-1.128-9.216-2.48-14.058-2.48-4.863 0-11.334 1.353-14.115 2.48-2.782 1.133-4.46 2.265-5.039 5.078l-1.917 15.659v21.751h3v2c0 4 5 4 5 0v-2h25v2c0 4 6 4 6 0v-2h3v-21.751l-1.798-15.659z"/>
</svg>

<!-- Train: https://github.com/scottdejonge/map-icons/blob/master/src/icons/train-station.svg -->
<svg x="250" y="250" width="50" height="50" viewBox="-25 -25 50 50">
  <rect x="-22.5" y="-22.5" width="45" height="45" rx="6" ry="6" fill="#1A73E8"/>
  <path fill="#FFFFFF" transform="scale(0.7) translate(-25, -25)" d="M34.641 37.807l-.113-.216.057-.081.057-.081c1.051-.434 2.006-.971 2.861-1.604.854-.64 1.426-1.574 1.721-2.809l.215-.988v-25.521c0-.616-.184-1.255-.547-1.905-.363-.661-.816-1.252-1.365-1.777-.543-.52-1.148-.961-1.824-1.311-.676-.344-1.32-.514-1.939-.514h-18.265c-.583 0-1.212.16-1.885.487-.675.328-1.294.747-1.854 1.257-.562.505-1.027 1.08-1.39 1.713-.364.645-.547 1.267-.547 1.89v25.901c0 .436.115.891.327 1.363.22.474.492.917.818 1.331.326.426.685.807 1.067 1.15s.753.627 1.118.844c.176.074.499.188.957.333.448.144.658.251.624.321l-7.476 11.346h4.361l5.457-7.909h15.055l5.451 7.909h4.418l-7.359-11.129zm-14.347-34.628c0-.183.087-.37.273-.575.179-.199.36-.295.545-.295h6.982c.07 0 .221.07.438.213.215.146.324.291.324.436v2.672c0 .183-.092.351-.271.49-.184.15-.35.226-.49.226h-7.035l-.222-.173c-.105-.07-.227-.166-.353-.301-.128-.122-.191-.256-.191-.401v-2.292zm-7.037 7.472c0-.363.086-.719.247-1.066.162-.345.373-.66.627-.955.256-.292.556-.521.898-.704.348-.184.705-.274 1.068-.274h16.963c.322 0 .65.076.977.214.328.146.627.35.902.602.274.252.489.532.655.822.162.284.242.596.242.923v5.783c0 .328-.088.638-.27.95-.182.317-.418.591-.709.827-.295.232-.598.424-.928.564-.326.155-.654.22-.979.22h-16.744l-.276-.049c-.144-.038-.256-.074-.329-.113-.615-.106-1.159-.435-1.633-.982-.474-.546-.711-1.144-.711-1.797v-4.965zm5.049 22.526c-.563.581-1.268.871-2.1.871-.837 0-1.52-.29-2.05-.871-.526-.58-.789-1.294-.789-2.131 0-.763.274-1.424.821-1.986.544-.565 1.217-.851 2.018-.851.832 0 1.536.27 2.1.789.564.533.845 1.226.845 2.105 0 .801-.281 1.494-.845 2.074zm12.489 0c-.562-.58-.848-1.294-.848-2.131 0-.838.299-1.515.9-2.048.602-.52 1.301-.789 2.104-.789.83 0 1.516.285 2.043.851.525.562.793 1.224.793 1.986 0 .837-.275 1.551-.82 2.131-.549.581-1.236.871-2.076.871-.834 0-1.534-.29-2.096-.871z"/>
</svg>

<!-- Hospital: https://github.com/scottdejonge/map-icons/blob/master/src/icons/hospital.svg -->
<!-- blue is the standard road sign color; alternative is #EE675C -->
<svg x="0" y="300" width="50" height="50" viewBox="-25 -25 50 50">
  <rect x="-22.5" y="-22.5" width="45" height="45" rx="6" ry="6" fill="#1A73E8"/>
  <path fill="#FFFFFF" transform="scale(0.09) translate(-275, -292)" d="M125.73665 92.095291h69.47169V244.72249h161.048V92.095291h83.15551V494.189h-83.15551V323.66759h-161.048V494.189h-83.15551V92.095291z"/>
</svg>

</svg>
